<svg version="1.1" width="18" height="18" x="0" y="0" xml:space="preserve" class="" id="svg2"
   xmlns="http://www.w3.org/2000/svg">
   <g id="g2" transform="translate(-3 -3) scale(1.00004)">
      <linearGradient id="a" x1="12" x2="12" y1="3" y2="21" gradientUnits="userSpaceOnUse">
         <stop offset="0" stop-color="#c1f7ce" id="stop1" />
         <stop offset="1" stop-color="#96d33a" id="stop2" />
      </linearGradient>
      <path fill="url(#a)" fill-rule="evenodd"
         d="M9.03 3.344a13.006 13.006 0 015.94 0 7.63 7.63 0 015.686 5.686 13.008 13.008 0 010 5.94 7.63 7.63 0 01-5.686 5.686 13.008 13.008 0 01-5.94 0 7.63 7.63 0 01-5.686-5.686 13.006 13.006 0 010-5.94A7.63 7.63 0 019.03 3.344zm3.57 6.263a.6.6 0 10-1.2 0V11.4H9.607a.6.6 0 100 1.2H11.4v1.793a.6.6 0 101.2 0V12.6h1.793a.6.6 0 100-1.2H12.6z"
         clip-rule="evenodd" opacity="1" data-original="url(#a)" id="path2" />
   </g>
</svg>