<svg version="1.1" width="18" height="16" x="0" y="0" xml:space="preserve" class="" id="svg2"
   xmlns="http://www.w3.org/2000/svg">
   <g id="g2" transform="matrix(1 0 0 .99997 -3 -4)">
      <linearGradient id="a" x1="12" x2="12" y1="4" y2="22" gradientUnits="userSpaceOnUse">
         <stop offset="0" stop-color="#fff" id="stop1" />
         <stop offset="1" stop-color="#a996eb" id="stop2" />
      </linearGradient>
      <path fill="url(#a)" fill-rule="evenodd"
         d="M3.938 8.58c3.618-6.107 12.506-6.107 16.124 0a6.705 6.705 0 010 6.84c-3.618 6.107-12.506 6.107-16.124 0a6.705 6.705 0 010-6.84zm5.427 3.475A2.639 2.639 0 0112 9.41a2.64 2.64 0 012.635 2.645A2.64 2.64 0 0112 14.698a2.639 2.639 0 01-2.635-2.643zM12 8.17a3.875 3.875 0 00-3.869 3.884A3.875 3.875 0 0012 15.937a3.876 3.876 0 003.869-3.882 3.876 3.876 0 00-3.87-3.884z"
         clip-rule="evenodd" opacity="1" data-original="url(#a)" id="path2" />
   </g>
</svg>